<?xml version="1.0" encoding="utf-8"?>
<!-- Generator: Adobe Illustrator 16.0.0, SVG Export Plug-In . SVG Version: 6.00 Build 0)  -->
<!DOCTYPE svg PUBLIC "-//W3C//DTD SVG 1.1//EN" "http://www.w3.org/Graphics/SVG/1.1/DTD/svg11.dtd">
<svg version="1.1" id="Layer_1" xmlns="http://www.w3.org/2000/svg" xmlns:xlink="http://www.w3.org/1999/xlink" x="0px" y="0px"
	 width="23.996px" height="23.994px" viewBox="0 0 23.996 23.994" enable-background="new 0 0 23.996 23.994" xml:space="preserve">
<g>
	<circle fill="#A7A9AC" cx="11.998" cy="11.997" r="12"/>
	<path fill="#FFFFFF" d="M14.119,11.997l3.939-3.939c0.586-0.585,0.586-1.536,0-2.121c-0.586-0.586-1.535-0.586-2.121,0
		l-3.939,3.939L8.059,5.937c-0.586-0.586-1.535-0.586-2.121,0c-0.586,0.585-0.586,1.536,0,2.121l3.939,3.939l-3.939,3.938
		c-0.586,0.584-0.586,1.535,0,2.121c0.292,0.295,0.676,0.44,1.06,0.44s0.768-0.146,1.061-0.438l3.939-3.94l3.939,3.938
		c0.293,0.295,0.677,0.44,1.061,0.44s0.768-0.146,1.061-0.438c0.586-0.584,0.586-1.535,0-2.121L14.119,11.997z"/>
</g>
</svg>
