<?xml version="1.0" encoding="utf-8"?>
<!-- Generator: Adobe Illustrator 16.0.0, SVG Export Plug-In . SVG Version: 6.00 Build 0)  -->
<!DOCTYPE svg PUBLIC "-//W3C//DTD SVG 1.1//EN" "http://www.w3.org/Graphics/SVG/1.1/DTD/svg11.dtd">
<svg version="1.1" id="Layer_1" xmlns="http://www.w3.org/2000/svg" xmlns:xlink="http://www.w3.org/1999/xlink" x="0px" y="0px"
	 width="250px" height="60px" viewBox="0 0 250 60" enable-background="new 0 0 250 60" xml:space="preserve">
<g>
	<ellipse fill-rule="evenodd" clip-rule="evenodd" fill="#A61D31" cx="81.724" cy="49.748" rx="30.412" ry="9.197"/>
	<ellipse fill-rule="evenodd" clip-rule="evenodd" fill="#A61D31" cx="128.246" cy="39.188" rx="15.223" ry="4.584"/>
	<ellipse fill-rule="evenodd" clip-rule="evenodd" fill="#A61D31" cx="148.718" cy="34.557" rx="5.986" ry="1.824"/>
	<circle fill-rule="evenodd" clip-rule="evenodd" fill="#A61D31" cx="148.578" cy="4.258" r="3.203"/>
	<path fill-rule="evenodd" clip-rule="evenodd" fill="#404E57" d="M71.13,29.68h5.222V10.17H71.13V29.68L71.13,29.68z M197.4,10.466
		c0,0-7.85-2.759-11.791,1.839c0,0-2.891,5.321,1.609,8.146c0,0,3.152,1.413,4.895,1.839c0,0,1.576,0.657,1.576,1.905
		c0,0-0.033,1.61-1.576,1.774c-1.543,0.165-3.613,0.033-4.992-0.229c0,0-1.971-0.493-2.268,1.675l-0.131,1.281
		c0,0,4.105,2.035,9.295,0.853c0,0,4.861-0.953,4.664-6.208c0,0,0.328-4.105-4.959-5.419c0,0-4.336-1.051-4.008-2.923
		c0,0,0.197-2.267,4.402-1.412c0,0,2.791,0.591,3.186-0.953C197.303,12.633,197.564,11.09,197.4,10.466L197.4,10.466z
		 M177.268,17.56h-7.063c0.492-4.499,3.811-4.04,3.811-4.04C177.334,13.521,177.268,17.56,177.268,17.56L177.268,17.56z
		 M174.047,9.677c10.148,0,8.277,10.938,8.277,10.938h-12.219c-0.049,7.587,8.574,5.075,8.574,5.075
		c2.561-0.542,2.463,1.182,2.463,1.182l0.051,1.872c-2.959,1.331-6.998,1.183-6.998,1.183c-9.704,0-9.507-9.804-9.507-9.804
		C164.688,9.677,174.047,9.677,174.047,9.677L174.047,9.677z M156.607,29.68h5.222V2.583h-5.222V29.68L156.607,29.68z
		 M145.966,29.68h5.223V10.17h-5.223V29.68L145.966,29.68z M137.361,29.68h5.223L139.218,4.8l-3.992,0.016
		c-1.749,0.142-2.922,0.197-3.711,2.924l-3.227,12.008L125.061,7.74c-0.788-2.727-1.962-2.782-3.711-2.924l-3.99-0.016l-3.368,24.88
		h5.222l2.184-16.7l4.281,16.481l-0.059,0.219h5.338l-0.059-0.219l4.279-16.481L137.361,29.68L137.361,29.68z M105.141,17.56h-7.063
		c0.493-4.499,3.811-4.04,3.811-4.04C105.206,13.521,105.141,17.56,105.141,17.56L105.141,17.56z M101.921,9.677
		c0,0-9.361,0-9.361,10.445c0,0-0.197,9.804,9.509,9.804c0,0,4.04,0.148,6.995-1.183l-0.048-1.872c0,0,0.098-1.724-2.464-1.182
		c0,0-8.622,2.513-8.572-5.075h12.218C110.198,20.614,112.07,9.677,101.921,9.677L101.921,9.677z M87.42,29.68h-5.222V13.815h-3.284
		V9.726h3.284V7.674c0,0-0.607-7.981,10.592-5.255V6.13c-5.09-1.412-5.37,1.544-5.37,1.544v2.052h6.716c0,0-0.995,4.089-4.877,4.089
		H87.42V29.68L87.42,29.68z M68.766,25.393c0,0-1.527,4.287-5.271,4.287h-4.187h-0.089h-0.195h-0.192h-0.194h-0.191h-0.19h-0.188
		h-0.186h-0.185h-0.181h-0.179h-0.177h-0.175h-0.169h-0.169h-0.162h-0.162h-0.156h-0.152h-0.148h-0.144h-0.139H55.45h-0.128h-0.125
		H55.08h-0.113h-0.108h-0.099h-0.096h-0.088h-0.082h-0.074h-0.068h-0.059h-0.054h-0.046h-0.038h-0.029h-0.021h-0.014h-0.004v-4.287
		V4.75h5.222v20.643H68.766L68.766,25.393z M76.943,4.258c0,1.769-1.433,3.202-3.202,3.202c-1.768,0-3.202-1.433-3.202-3.202
		s1.434-3.203,3.202-3.203C75.51,1.055,76.943,2.489,76.943,4.258z"/>
</g>
</svg>
