<?xml version="1.0" encoding="utf-8"?>
<!-- Generator: Adobe Illustrator 16.0.0, SVG Export Plug-In . SVG Version: 6.00 Build 0)  -->
<!DOCTYPE svg PUBLIC "-//W3C//DTD SVG 1.1//EN" "http://www.w3.org/Graphics/SVG/1.1/DTD/svg11.dtd">
<svg version="1.1" id="Layer_1" xmlns="http://www.w3.org/2000/svg" xmlns:xlink="http://www.w3.org/1999/xlink" x="0px" y="0px"
	 width="189.5px" height="60px" viewBox="243 0 189.5 60" enable-background="new 243 0 189.5 60" xml:space="preserve">
<g>
	<g>
		<g>
			<polygon fill="#FFFFFF" points="302.467,41.855 297.141,41.855 297.141,22.224 302.467,22.224 302.467,39.965 			"/>
		</g>
		<g>
			<path fill="#FFFFFF" d="M299.805,20.05c-1.703,0-3.029-1.316-3.029-2.993c0-1.633,1.354-2.959,3.029-2.959
				c1.723,0,3.07,1.298,3.07,2.959C302.875,18.707,301.5,20.05,299.805,20.05"/>
		</g>
		<g>
			<path fill="#FFFFFF" d="M355.418,42.262c-3.01,0-5.51-1.037-7.232-3.003c-1.571-1.786-2.44-4.317-2.44-7.116
				c0-2.882,1.021-5.516,2.889-7.414c1.857-1.904,4.443-2.947,7.271-2.947c2.215,0,4.006,0.487,5.713,1.444l-0.18,4.392
				c-1.388-1.048-3.15-1.645-4.966-1.645c-3.127,0-5.399,2.491-5.399,5.923c0,2.756,1.399,5.972,5.358,5.972
				c1.9,0,3.521-0.769,4.644-1.417l1.393,3.791C361.053,41.212,358.24,42.262,355.418,42.262"/>
		</g>
		<g>
			<path fill="#FFFFFF" d="M279.285,41.855h-5.648L271,35.162h-9.211l-2.471,6.693h-5.404l10.557-27.292h3.885L279.285,41.855z
				 M263.463,30.693h5.828l-2.041-5.809c-0.328-0.895-0.596-1.729-0.803-2.486c-0.186,0.699-0.459,1.475-0.787,2.405L263.463,30.693
				z"/>
		</g>
		<g>
			<path fill="#FFFFFF" d="M295.533,22.224h-5.334l-4.742,12.721l-4.666-12.721h-5.371l7.172,17.493
				c0.541,1.359,1.363,2.141,2.918,2.141h1.855L295.533,22.224z"/>
		</g>
		<g>
			<path fill="#FFFFFF" d="M311.621,42.262c-3.836,0-6.516-2.629-6.516-6.394c0-3.964,3.008-6.338,8.254-6.512l3.176-0.115v-0.262
				c0-2.486-1.924-3.007-3.533-3.007c-1.611,0-3.174,0.48-4.906,1.524l-1.803-3.456c2.135-1.422,4.834-2.26,7.803-2.26
				c5.283,0,7.851,2.353,7.851,7.198v8.975c0,1.727,0.151,2.889,0.455,3.902h-3.076c-1.31,0-1.82-0.525-2.209-1.57
				C315.545,41.611,313.746,42.262,311.621,42.262 M316.535,33.068l-2.517,0.076c-3.213,0.095-3.581,1.393-3.581,2.357
				c0,1.532,1.077,2.445,2.887,2.445c1.268,0,2.35-0.369,3.211-1.094V33.068z"/>
		</g>
		<g>
			<path fill="#FFFFFF" d="M370.123,42.262c-3.832,0-6.514-2.629-6.514-6.394c0-3.964,3.008-6.338,8.254-6.512l3.18-0.115v-0.262
				c0-2.486-1.926-3.007-3.539-3.007c-1.604,0-3.17,0.48-4.9,1.524l-1.807-3.456c2.135-1.422,4.836-2.26,7.803-2.26
				c5.283,0,7.854,2.353,7.854,7.198v8.975c0,1.727,0.147,2.889,0.451,3.902h-3.074c-1.313,0-1.822-0.525-2.211-1.57
				C374.049,41.611,372.25,42.262,370.123,42.262 M375.043,33.068l-2.523,0.076c-3.209,0.095-3.577,1.393-3.577,2.357
				c0,1.532,1.077,2.445,2.887,2.445c1.271,0,2.35-0.369,3.215-1.094L375.043,33.068L375.043,33.068z"/>
		</g>
		<g>
			<path fill="#FFFFFF" d="M343.373,41.855h-5.332v-11.5c0-2.722-0.805-3.937-2.604-3.937c-1.401,0-2.92,0.623-4.637,1.909v13.528
				h-5.328V22.224h2.041c1.552,0,2.521,0.593,2.963,1.813l0.025,0.1c2.268-1.627,4.311-2.354,6.592-2.354
				c3.037,0,6.279,1.87,6.279,7.116L343.373,41.855L343.373,41.855z"/>
		</g>
		<g>
			<path fill="#FFFFFF" d="M416.854,41.286c-0.653-2.027-2.723-3.609-9.991-4.158c1.162,1.349,2.381,2.636,3.664,3.841h3.69
				C415.748,40.969,416.422,41.096,416.854,41.286"/>
		</g>
		<g>
			<path fill="#FFFFFF" d="M388.959,20.314c-0.34,7.866,3.877,15.79,17.768,16.805c0.048,0.002,0.091,0.004,0.138,0.009
				c-7.056-8.196-11.813-18.693-13.72-27.431C393.145,9.697,389.268,13.115,388.959,20.314"/>
		</g>
		<g>
			<path fill="#FFFFFF" d="M410.525,40.969c-5.474,0-14.925,0.002-14.925,0.002c0.197,0.463,0.884,0.79,2.438,0.885
				c9.32,0.551,10.639,7.863,23.977,7.863c1.175,0,1.906-0.066,2.64-0.208C419.387,47.893,414.65,44.843,410.525,40.969"/>
		</g>
	</g>
</g>
</svg>
