<?xml version="1.0" encoding="utf-8"?>
<!-- Generator: Adobe Illustrator 16.0.0, SVG Export Plug-In . SVG Version: 6.00 Build 0)  -->
<!DOCTYPE svg PUBLIC "-//W3C//DTD SVG 1.1//EN" "http://www.w3.org/Graphics/SVG/1.1/DTD/svg11.dtd">
<svg version="1.1" id="Layer_1" xmlns="http://www.w3.org/2000/svg" xmlns:xlink="http://www.w3.org/1999/xlink" x="0px" y="0px"
	 width="189.5px" height="60px" viewBox="0 0 189.5 60" enable-background="new 0 0 189.5 60" xml:space="preserve">
		<path class="avletras" fill="#FFFFFF" d="M62.312,40.356h-5.326V20.725h5.326v17.741V40.356z M59.649,18.551c-1.703,0-3.029-1.316-3.029-2.993
			c0-1.633,1.354-2.959,3.029-2.959c1.723,0,3.07,1.298,3.07,2.959C62.72,17.208,61.345,18.551,59.649,18.551 M115.263,40.763
			c-3.01,0-5.51-1.037-7.232-3.003c-1.57-1.786-2.439-4.317-2.439-7.116c0-2.882,1.021-5.516,2.889-7.414
			c1.857-1.904,4.443-2.947,7.271-2.947c2.215,0,4.006,0.487,5.713,1.444l-0.18,4.392c-1.389-1.048-3.15-1.645-4.967-1.645
			c-3.127,0-5.398,2.491-5.398,5.923c0,2.756,1.398,5.972,5.357,5.972c1.9,0,3.521-0.769,4.645-1.417l1.393,3.791
			C120.897,39.713,118.085,40.763,115.263,40.763 M39.13,40.356h-5.648l-2.637-6.693h-9.211l-2.471,6.693h-5.404l10.557-27.292H28.2
			L39.13,40.356z M23.308,29.194h5.828l-2.041-5.81c-0.328-0.895-0.596-1.729-0.803-2.486c-0.186,0.699-0.459,1.475-0.787,2.405
			L23.308,29.194z M55.378,20.725h-5.334l-4.742,12.721l-4.666-12.721h-5.371l7.172,17.493c0.541,1.359,1.363,2.141,2.918,2.141
			h1.855L55.378,20.725z M71.466,40.763c-3.836,0-6.516-2.629-6.516-6.394c0-3.964,3.008-6.338,8.254-6.512l3.176-0.115V27.48
			c0-2.486-1.924-3.007-3.533-3.007c-1.611,0-3.174,0.48-4.906,1.524l-1.803-3.456c2.135-1.422,4.834-2.26,7.803-2.26
			c5.283,0,7.852,2.353,7.852,7.198v8.975c0,1.727,0.15,2.889,0.455,3.902h-3.076c-1.311,0-1.82-0.525-2.209-1.57
			C75.39,40.112,73.591,40.763,71.466,40.763 M76.38,31.569l-2.518,0.076c-3.213,0.095-3.58,1.393-3.58,2.356
			c0,1.532,1.076,2.444,2.887,2.444c1.268,0,2.35-0.368,3.211-1.094V31.569z M129.968,40.763c-3.832,0-6.514-2.629-6.514-6.394
			c0-3.964,3.008-6.338,8.254-6.512l3.18-0.115V27.48c0-2.486-1.926-3.007-3.539-3.007c-1.604,0-3.17,0.48-4.9,1.524l-1.807-3.456
			c2.135-1.422,4.836-2.26,7.803-2.26c5.283,0,7.854,2.353,7.854,7.198v8.975c0,1.727,0.146,2.889,0.451,3.902h-3.074
			c-1.313,0-1.822-0.525-2.211-1.57C133.894,40.112,132.095,40.763,129.968,40.763 M134.888,31.569l-2.523,0.076
			c-3.209,0.095-3.576,1.393-3.576,2.356c0,1.532,1.076,2.444,2.887,2.444c1.271,0,2.35-0.368,3.215-1.094L134.888,31.569
			L134.888,31.569z M103.218,40.356h-5.332v-11.5c0-2.722-0.805-3.937-2.604-3.937c-1.4,0-2.92,0.623-4.637,1.909v13.528h-5.328
			V20.725h2.041c1.553,0,2.521,0.593,2.963,1.813l0.025,0.1c2.268-1.627,4.311-2.354,6.592-2.354c3.037,0,6.279,1.87,6.279,7.116
			L103.218,40.356L103.218,40.356z"/>
		<path class="avpjaro" fill="#FFFFFF" d="M176.698,39.787c-0.652-2.027-2.723-3.609-9.99-4.158c1.162,1.349,2.381,2.636,3.664,3.841h3.689
			C175.593,39.47,176.267,39.597,176.698,39.787 M148.804,18.815c-0.34,7.866,3.877,15.79,17.768,16.805
			c0.049,0.002,0.092,0.004,0.139,0.009c-7.057-8.196-11.813-18.693-13.721-27.431C152.989,8.198,149.112,11.616,148.804,18.815
			 M170.37,39.47c-5.475,0-14.926,0.002-14.926,0.002c0.197,0.463,0.885,0.79,2.438,0.885c9.32,0.552,10.639,7.863,23.977,7.863
			c1.176,0,1.906-0.066,2.641-0.208C179.231,46.394,174.495,43.344,170.37,39.47"/>
</svg>
