<?xml version="1.0" encoding="utf-8"?>
<!-- Generator: Adobe Illustrator 16.0.0, SVG Export Plug-In . SVG Version: 6.00 Build 0)  -->
<!DOCTYPE svg PUBLIC "-//W3C//DTD SVG 1.1//EN" "http://www.w3.org/Graphics/SVG/1.1/DTD/svg11.dtd">
<svg version="1.1" id="Layer_1" xmlns="http://www.w3.org/2000/svg" xmlns:xlink="http://www.w3.org/1999/xlink" x="0px" y="0px"
	 width="20px" height="20px" viewBox="0 0 20 20" enable-background="new 0 0 20 20" xml:space="preserve">
<g>
	<g>
		<path fill="#FFFFFF" d="M10,2.5c4.136,0,7.5,3.364,7.5,7.5s-3.364,7.5-7.5,7.5S2.5,14.136,2.5,10S5.864,2.5,10,2.5 M10,1
			c-4.971,0-9,4.029-9,9s4.029,9,9,9s9-4.029,9-9S14.971,1,10,1L10,1z"/>
	</g>
	<g>
		<rect x="4.343" y="9" transform="matrix(0.7071 0.7071 -0.7071 0.7071 10 -4.1421)" fill="#FFFFFF" width="11.314" height="2"/>
		<rect x="9" y="4.343" transform="matrix(0.7071 0.7071 -0.7071 0.7071 10 -4.1421)" fill="#FFFFFF" width="2" height="11.314"/>
	</g>
</g>
</svg>
