<?xml version="1.0" encoding="utf-8"?>
<!-- Generator: Adobe Illustrator 16.0.0, SVG Export Plug-In . SVG Version: 6.00 Build 0)  -->
<!DOCTYPE svg PUBLIC "-//W3C//DTD SVG 1.1//EN" "http://www.w3.org/Graphics/SVG/1.1/DTD/svg11.dtd">
<svg version="1.1" id="Layer_1" xmlns="http://www.w3.org/2000/svg" xmlns:xlink="http://www.w3.org/1999/xlink" x="0px" y="0px"
	 width="20px" height="20px" viewBox="0 0 20 20" enable-background="new 0 0 20 20" xml:space="preserve">
<g>
	<path fill="#FFFFFF" d="M10,2.5c4.136,0,7.5,3.364,7.5,7.5s-3.364,7.5-7.5,7.5S2.5,14.136,2.5,10S5.864,2.5,10,2.5 M10,1
		c-4.971,0-9,4.029-9,9s4.029,9,9,9s9-4.029,9-9S14.971,1,10,1L10,1z"/>
	<g>
		<path fill="#FFFFFF" d="M11.233,8.456l-1.28,4.439c-0.067,0.253-0.101,0.421-0.101,0.504c0,0.042,0.018,0.083,0.055,0.124
			c0.035,0.042,0.074,0.063,0.115,0.063c0.073,0,0.143-0.031,0.21-0.094c0.191-0.154,0.417-0.434,0.675-0.838l0.218,0.124
			c-0.632,1.097-1.302,1.646-2.01,1.646c-0.269,0-0.483-0.076-0.644-0.229C8.311,14.042,8.23,13.85,8.23,13.617
			c0-0.155,0.036-0.353,0.108-0.59l0.869-2.988C9.291,9.755,9.333,9.54,9.333,9.396c0-0.094-0.041-0.176-0.121-0.249
			C9.132,9.074,9.024,9.038,8.89,9.038c-0.066,0-0.142,0.003-0.225,0.008l0.078-0.248l2.118-0.342H11.233z M10.846,5.577
			c0.259,0,0.478,0.091,0.655,0.271c0.179,0.182,0.268,0.398,0.268,0.652c0,0.253-0.09,0.469-0.271,0.647
			c-0.181,0.179-0.398,0.268-0.651,0.268c-0.249,0-0.462-0.089-0.64-0.268c-0.18-0.179-0.268-0.395-0.268-0.647
			c0-0.254,0.088-0.471,0.264-0.652C10.378,5.668,10.593,5.577,10.846,5.577z"/>
	</g>
</g>
</svg>
