<?xml version="1.0" encoding="utf-8"?>
<!-- Generator: Adobe Illustrator 16.0.0, SVG Export Plug-In . SVG Version: 6.00 Build 0)  -->
<!DOCTYPE svg PUBLIC "-//W3C//DTD SVG 1.1//EN" "http://www.w3.org/Graphics/SVG/1.1/DTD/svg11.dtd">
<svg version="1.1" id="Layer_1" xmlns="http://www.w3.org/2000/svg" xmlns:xlink="http://www.w3.org/1999/xlink" x="0px" y="0px"
	 width="664.595px" height="155.783px" viewBox="0 0 664.595 155.783" enable-background="new 0 0 664.595 155.783"
	 xml:space="preserve">
<polygon fill="#EC1C24" points="188.99,125.178 168.256,125.178 168.256,48.758 188.99,48.758 188.99,117.816 "/>
<path fill="#EC1C24" d="M178.628,40.299c-6.626,0-11.793-5.125-11.793-11.652c0-6.354,5.274-11.516,11.793-11.516
	c6.708,0,11.955,5.053,11.955,11.516C190.583,35.07,185.229,40.299,178.628,40.299"/>
<path fill="#EC1C24" d="M395.095,126.756c-11.709,0-21.446-4.037-28.146-11.689c-6.123-6.955-9.507-16.807-9.507-27.699
	c0-11.217,3.974-21.469,11.249-28.859c7.23-7.41,17.29-11.469,28.299-11.469c8.625,0,15.595,1.895,22.239,5.619l-0.703,17.096
	c-5.395-4.078-12.256-6.4-19.323-6.4c-12.173,0-21.018,9.695-21.018,23.057c0,10.727,5.451,23.242,20.854,23.242
	c7.397,0,13.71-2.988,18.071-5.516l5.427,14.756C417.027,122.672,406.079,126.756,395.095,126.756"/>
<path fill="#EC1C24" d="M98.757,125.178H76.773L66.508,99.123H30.656l-9.615,26.055H0L41.098,18.941h15.118L98.757,125.178z
	 M37.17,81.73h22.689l-7.943-22.609c-1.281-3.482-2.322-6.732-3.129-9.678c-0.724,2.723-1.783,5.74-3.06,9.361L37.17,81.73z"/>
<path fill="#EC1C24" d="M162.001,48.758h-20.763l-18.46,49.52l-18.163-49.52H83.715l27.917,68.092
	c2.104,5.293,5.303,8.328,11.356,8.328h7.224L162.001,48.758z"/>
<path fill="#EC1C24" d="M224.619,126.756c-14.926,0-25.359-10.232-25.359-24.885c0-15.432,11.709-24.672,32.129-25.35l12.365-0.445
	v-1.021c0-9.676-7.49-11.701-13.757-11.701c-6.268,0-12.354,1.867-19.096,5.934l-7.02-13.455c8.311-5.533,18.817-8.793,30.374-8.793
	c20.563,0,30.56,9.156,30.56,28.016v34.934c0,6.723,0.589,11.244,1.764,15.189h-11.969c-5.099,0-7.089-2.043-8.598-6.109
	C239.898,124.23,232.897,126.756,224.619,126.756 M243.753,90.971l-9.793,0.297c-12.507,0.371-13.946,5.422-13.946,9.182
	c0,5.963,4.197,9.52,11.24,9.52c4.936,0,9.142-1.439,12.5-4.254V90.971z"/>
<path fill="#EC1C24" d="M452.34,126.756c-14.922,0-25.359-10.232-25.359-24.885c0-15.432,11.709-24.672,32.133-25.35l12.373-0.445
	v-1.021c0-9.676-7.493-11.701-13.778-11.701c-6.25,0-12.336,1.867-19.074,5.934l-7.029-13.455
	c8.311-5.533,18.821-8.793,30.369-8.793c20.567,0,30.573,9.156,30.573,28.016v34.934c0,6.723,0.575,11.244,1.75,15.189h-11.965
	c-5.108,0-7.096-2.043-8.604-6.109C467.62,124.23,460.613,126.756,452.34,126.756 M471.486,90.971l-9.818,0.297
	c-12.495,0.371-13.933,5.422-13.933,9.182c0,5.963,4.196,9.52,11.24,9.52c4.945,0,9.142-1.439,12.511-4.254V90.971z"/>
<path fill="#EC1C24" d="M348.215,125.178h-20.753V80.412c0-10.594-3.138-15.322-10.139-15.322c-5.457,0-11.362,2.426-18.048,7.43
	v52.658h-20.738v-76.42h7.943c6.037,0,9.811,2.311,11.537,7.057l0.098,0.389c8.822-6.332,16.775-9.164,25.66-9.164
	c11.817,0,24.44,7.279,24.44,27.699V125.178z"/>
<path fill="#EC1C24" d="M634.226,122.959c-2.543-7.893-10.595-14.049-38.887-16.186c4.521,5.246,9.267,10.262,14.262,14.951h14.366
	C629.928,121.725,632.546,122.217,634.226,122.959"/>
<path fill="#EC1C24" d="M525.655,41.328c-1.328,30.617,15.084,61.463,69.154,65.41c0.186,0.008,0.349,0.018,0.539,0.035
	C567.881,74.869,549.365,34.012,541.942,0C541.942,0,526.857,13.305,525.655,41.328"/>
<path fill="#EC1C24" d="M609.601,121.725c-21.305,0-58.089,0.008-58.089,0.008c0.761,1.803,3.434,3.074,9.484,3.438
	c36.275,2.145,41.414,30.613,93.33,30.613c4.568,0,7.414-0.26,10.27-0.809C644.088,148.672,625.652,136.803,609.601,121.725"/>
</svg>
