<?xml version="1.0" encoding="utf-8"?>
<!-- Generator: Adobe Illustrator 16.0.0, SVG Export Plug-In . SVG Version: 6.00 Build 0)  -->
<!DOCTYPE svg PUBLIC "-//W3C//DTD SVG 1.1//EN" "http://www.w3.org/Graphics/SVG/1.1/DTD/svg11.dtd">
<svg version="1.1" id="Layer_1" xmlns="http://www.w3.org/2000/svg" xmlns:xlink="http://www.w3.org/1999/xlink" x="0px" y="0px"
	 width="130px" height="50px" viewBox="0 0 130 50" enable-background="new 0 0 130 50" xml:space="preserve">
<g>
	<path fill="#A71930" d="M29.552,33.719c-14.491,0-26.243,3.517-26.243,7.851c0,4.333,11.752,7.849,26.243,7.849
		c14.498,0,26.248-3.516,26.248-7.849C55.8,37.236,44.05,33.719,29.552,33.719 M67.232,29.482c-7.259,0-13.146,1.757-13.146,3.927
		c0,2.168,5.888,3.93,13.146,3.93s13.151-1.761,13.151-3.93C80.384,31.239,74.491,29.482,67.232,29.482 M84.874,28.061
		c-2.8,0-5.071,0.678-5.071,1.514c0,0.84,2.271,1.521,5.071,1.521c2.806,0,5.079-0.681,5.079-1.521
		C89.953,28.739,87.68,28.061,84.874,28.061 M84.877,5.969c1.604,0,2.785-1.244,2.785-2.706c0-1.465-1.182-2.683-2.785-2.683
		c-1.634,0-2.817,1.218-2.817,2.683C82.06,4.725,83.243,5.969,84.877,5.969"/>
	<path fill="#FFFFFF" d="M82.293,25.351h4.702V23.05V8.27h-4.702V25.351z M72.745,3.698c-1.52,0.076-2.086,0.616-2.497,1.999
		L67.232,17.24L64.22,5.697c-0.408-1.383-0.978-1.923-2.496-1.999h-3.852l-2.812,21.653h4.233l1.934-14.893l3.888,14.893h4.237
		l3.886-14.893l1.933,14.893h4.234L76.595,3.698H72.745z M90.6,25.351h4.661v-1.825V1.689H90.6V25.351z M121.854,14.884
		c-2.228-0.666-2.99-0.976-2.99-2.021c0-0.941,0.696-1.462,2.472-1.462c0.626,0,1.212,0.071,1.776,0.164l0.005-0.015
		c1.967,0.357,2.388-0.135,2.388-1.874V8.685c-0.899-0.342-2.676-0.689-4.418-0.689c-3.929,0-6.603,1.563-6.603,5.18
		c0,2.884,1.774,4.313,3.997,5.042c2.229,0.731,3.762,0.94,3.762,2.227c0,1.183-0.867,1.775-2.823,1.775
		c-0.777,0-1.646-0.116-2.477-0.287c-1.971-0.346-2.389,0.143-2.389,1.884l-0.005,0.839c1.285,0.592,3.165,0.979,5.565,0.979
		c3.932,0,6.576-1.917,6.576-5.431C126.691,16.794,124.26,15.576,121.854,14.884 M105.524,7.996c-5.322,0-8.104,3.997-8.104,8.832
		c0,5.186,2.604,8.806,8.835,8.806c2.094,0,3.994-0.417,5.394-0.979v-0.902c0-1.74-0.421-2.233-2.39-1.878v-0.006
		c-0.811,0.168-1.703,0.278-2.661,0.278c-3.3,0-4.35-1.804-4.415-4.621h10.508c0.074-0.486,0.109-1.183,0.109-1.6
		C112.8,11.814,111.025,7.996,105.524,7.996 M108.243,14.811h-5.918c0.206-2.195,1.392-3.41,3.199-3.41
		c1.842,0,2.719,1.605,2.719,3.239V14.811z M19.798,25.342h4.688v-2.174V8.284h-4.688V25.342z M9.944,3.698H5.182v21.645h0.072v0.01
		h7.7c2.141,0,3-0.612,4.25-2.502l0.86-1.323l-8.12-0.008V3.698z M22.166,0.605c-1.634,0-2.822,1.218-2.822,2.675
		c0,1.456,1.188,2.704,2.822,2.704c1.597,0,2.773-1.248,2.773-2.704C24.939,1.823,23.763,0.605,22.166,0.605 M46.648,7.996
		c-5.326,0-8.108,3.997-8.108,8.832c0,5.186,2.608,8.806,8.836,8.806c2.101,0,4.001-0.417,5.396-0.979v-0.902
		c0-1.74-0.422-2.233-2.385-1.878v-0.006c-0.81,0.168-1.698,0.278-2.661,0.278c-3.31,0-4.35-1.804-4.419-4.621h10.511
		c0.065-0.486,0.108-1.183,0.108-1.6C53.927,11.814,52.148,7.996,46.648,7.996 M49.363,14.811h-5.914
		c0.207-2.195,1.393-3.41,3.199-3.41c1.846,0,2.715,1.605,2.715,3.239V14.811z M40.13,8.273L34.212,8.28V7.162
		c0-1.723,0.671-2.426,2.42-2.426c0.918,0,1.588,0.174,2.215,0.317V1.683c-0.74-0.207-1.926-0.493-3.403-0.493
		c-3.689,0-5.935,1.685-5.935,5.372v1.726L26.872,8.29v3.813h2.637v13.248h4.703V12.103h0.801c2.15,0,3.006-0.612,4.253-2.505
		L40.13,8.273z"/>
</g>
</svg>
