<?xml version="1.0" encoding="utf-8"?>
<!-- Generator: Adobe Illustrator 16.0.0, SVG Export Plug-In . SVG Version: 6.00 Build 0)  -->
<!DOCTYPE svg PUBLIC "-//W3C//DTD SVG 1.1//EN" "http://www.w3.org/Graphics/SVG/1.1/DTD/svg11.dtd">
<svg version="1.1" id="Layer_1" xmlns="http://www.w3.org/2000/svg" xmlns:xlink="http://www.w3.org/1999/xlink" x="0px" y="0px"
	 width="20px" height="17px" viewBox="-0.01 0 20 17" enable-background="new -0.01 0 20 17" xml:space="preserve">
<g>
	<g>
		<rect x="0.5" y="0.508" fill="#F9F9FA" width="16" height="16"/>
		<path fill="#8C8C8C" d="M16,1.008v15H1v-15H16 M17,0.008H0v17h17V0.008L17,0.008z"/>
	</g>
	<g>
		<rect x="0.5" y="0.492" fill="#8C8C8C" width="16" height="4"/>
		<path fill="#8C8C8C" d="M16,0.992v3H1v-3H16 M17-0.008H0v5h17V-0.008L17-0.008z"/>
	</g>
	<g>
		<path fill="#8C8C8C" d="M3.57,12.104l1.328-0.16c0.043,0.338,0.156,0.597,0.342,0.775c0.186,0.18,0.41,0.27,0.674,0.27
			c0.283,0,0.521-0.107,0.715-0.322c0.194-0.215,0.291-0.504,0.291-0.869c0-0.345-0.093-0.619-0.278-0.82s-0.411-0.303-0.679-0.303
			c-0.176,0-0.386,0.034-0.63,0.104l0.151-1.118c0.371,0.01,0.654-0.071,0.85-0.242S6.627,9.02,6.627,8.736
			c0-0.241-0.072-0.433-0.215-0.576C6.269,8.017,6.078,7.943,5.841,7.943c-0.234,0-0.435,0.082-0.601,0.244
			C5.074,8.349,4.973,8.588,4.938,8.9L3.673,8.686C3.761,8.252,3.894,7.907,4.07,7.648c0.178-0.259,0.426-0.462,0.742-0.61
			C5.131,6.89,5.486,6.815,5.88,6.815c0.674,0,1.214,0.215,1.621,0.645c0.335,0.352,0.503,0.749,0.503,1.191
			c0,0.628-0.344,1.129-1.03,1.504c0.41,0.088,0.738,0.284,0.983,0.591c0.246,0.306,0.369,0.675,0.369,1.107
			c0,0.629-0.229,1.164-0.688,1.606s-1.03,0.664-1.714,0.664c-0.648,0-1.186-0.187-1.611-0.56
			C3.888,13.193,3.639,12.706,3.57,12.104z"/>
		<path fill="#8C8C8C" d="M12.691,14.003h-1.373V8.832c-0.5,0.469-1.092,0.814-1.771,1.04V8.627
			c0.357-0.117,0.747-0.339,1.167-0.667s0.708-0.709,0.864-1.145h1.113V14.003z"/>
	</g>
	<circle fill="#FFFFFF" cx="4" cy="2.492" r="1"/>
	<circle fill="#FFFFFF" cx="13" cy="2.492" r="1"/>
</g>
</svg>
